<?xml version="1.0" encoding="UTF-8" standalone="no"?>
<!-- Created with Inkscape (http://www.inkscape.org/) -->

<svg
   xmlns:dc="http://purl.org/dc/elements/1.1/"
   xmlns:cc="http://creativecommons.org/ns#"
   xmlns:rdf="http://www.w3.org/1999/02/22-rdf-syntax-ns#"
   xmlns:svg="http://www.w3.org/2000/svg"
   xmlns="http://www.w3.org/2000/svg"
   xmlns:sodipodi="http://sodipodi.sourceforge.net/DTD/sodipodi-0.dtd"
   xmlns:inkscape="http://www.inkscape.org/namespaces/inkscape"
   width="1000"
   height="500"
   viewBox="0 0 1000 500"
   version="1.1"
   id="svg8"
   sodipodi:docname="Vancouver flag single file.svg"
   inkscape:version="0.92.3 (2405546, 2018-03-11)">
  <defs
     id="defs2">
    <inkscape:path-effect
       is_visible="true"
       id="path-effect9253-2-9-3-5-5-6"
       effect="spiro" />
  </defs>
  <sodipodi:namedview
     id="base"
     pagecolor="#c8c8c8"
     bordercolor="#666666"
     borderopacity="1.0"
     inkscape:pageopacity="0.0"
     inkscape:pageshadow="2"
     inkscape:zoom="0.3499999999999999"
     inkscape:cx="79.99999999999966"
     inkscape:cy="531.4285714285712"
     inkscape:document-units="px"
     inkscape:current-layer="layer1"
     showgrid="false"
     inkscape:window-width="1366"
     inkscape:window-height="716"
     inkscape:window-x="-8"
     inkscape:window-y="-8"
     inkscape:window-maximized="1" />
  <metadata
     id="metadata5">
    <rdf:RDF>
      <cc:Work
         rdf:about="">
        <dc:format>image/svg+xml</dc:format>
        <dc:type
           rdf:resource="http://purl.org/dc/dcmitype/StillImage" />
        <dc:title></dc:title>
      </cc:Work>
    </rdf:RDF>
  </metadata>
  <g
     inkscape:label="Layer 1"
     inkscape:groupmode="layer"
     id="layer1"
     transform="translate(0,-500)">
    <g
       id="g12973"
       transform="translate(822.8571166992187,312.8571444559789)">
      <rect
         style="opacity:1;fill:#ffffff;fill-opacity:1;stroke:none;stroke-width:50;stroke-linecap:round;stroke-linejoin:round;stroke-miterlimit:4;stroke-dasharray:none;stroke-dashoffset:0;stroke-opacity:1;paint-order:normal"
         id="rect11839"
         width="1000"
         height="500"
         x="-822.8571166992188"
         y="187.1428527832031" />
      <g
         transform="matrix(4.999999876295389,0,0,4.999999876295389,3186.173834107303,-3190.86700685055)"
         style="fill:#00529b;fill-opacity:1"
         id="g12041">
        <path
           style="fill:#00529b;fill-opacity:1;stroke:none;stroke-width:1px;stroke-linecap:butt;stroke-linejoin:miter;stroke-opacity:1"
           d="m -766.8062133789062,755.9202278297333 c 2.5643030592081,7.255465905e-4 5.1257359327202,0.5130214224532 7.4944826498413,1.4999992257101 2.3687467171211,0.9869778032571 4.9375360576098,1.5007258130223 7.5055173501587,1.4999992257086 2.5643030592081,-7.255465905e-4 5.1257359327202,-0.5130214224531 7.4944826498413,-1.4999992257101 2.3687467171211,-0.9869778032571 4.9375360576098,-1.5007258130222 7.5055173501587,-1.4999992257085 2.5643030592081,7.255465905e-4 5.1257359327202,0.5130214224531 7.4944826498413,1.4999992257101 2.3687467171211,0.9869778032571 4.9375360576098,1.5007258130222 7.5055173501587,1.4999992257085 2.5643030592081,-7.255465905e-4 5.1257359327202,-0.5130214224531 7.4944826498413,-1.4999992257101 2.3687467171211,-0.9869778032571 4.9375360576098,-1.5007258130222 7.5055173501587,-1.4999992257085 2.5643030592081,7.255465905e-4 5.1257359327202,0.5130214224531 7.4944826498413,1.4999992257101 2.3687467171211,0.9869778032571 4.9375360576098,1.5007258130222 7.5055173501587,1.4999992257085 2.5643030592081,-7.255465905e-4 5.1257359327202,-0.5130214224531 7.4944826498413,-1.4999992257101 2.3687467171211,-0.9869778032571 4.9375360576098,-1.5007258130222 7.5055173501587,-1.4999992257085 2.5643030592081,7.255465905e-4 5.1257359327202,0.5130214224531 7.4944826498413,1.4999992257101 2.3687467171211,0.9869778032571 4.9375360576098,1.5007258130222 7.5055173501587,1.4999992257085 2.5643030592081,-7.255465905e-4 5.1257359327202,-0.5130214224524 7.4944826498413,-1.4999992257101 2.3687467171211,-0.9869778032571 4.9375360576098,-1.5007258130222 7.5055173501587,-1.4999992257085 2.5643030592081,7.255465905e-4 5.1257359327202,0.5130214224531 7.4944826498413,1.4999992257101 2.3687467171211,0.9869778032571 4.9375360576098,1.5007258130222 7.5055173501587,1.4999992257085 2.5643030592081,-7.255465897e-4 5.1257359327202,-0.5130214224524 7.4944826498413,-1.4999992257101 2.3687467171211,-0.9869778032571 4.9375360576098,-1.5007258130222 7.5055173501587,-1.4999992257085 2.5643030592081,7.255465905e-4 5.1257359327202,0.5130214224538 7.4944826498413,1.4999992257101 2.3687467171211,0.9869778032571 4.9375360576098,1.5007258130222 7.5055173501587,1.4999992257085 v 9.0909271240239 c -2.5679812925489,7.265873138e-4 -5.1367706330376,-0.5130214224514 -7.5055173501587,-1.4999992257084 -2.3687467171211,-0.9869778032571 -4.9301795906332,-1.4992736791196 -7.4944826498413,-1.4999992257101 -2.5679812925489,-7.265873138e-4 -5.1367706330376,0.5130214224514 -7.5055173501587,1.4999992257084 -2.3687467171211,0.9869778032571 -4.9301795906332,1.4992736791196 -7.4944826498413,1.4999992257101 -2.5679812925489,7.265873138e-4 -5.1367706330376,-0.5130214224514 -7.5055173501587,-1.4999992257084 -2.3687467171211,-0.9869778032571 -4.9301795906332,-1.4992736791196 -7.4944826498413,-1.4999992257101 -2.5679812925489,-7.265873138e-4 -5.1367706330376,0.5130214224514 -7.5055173501587,1.4999992257084 -2.3687467171211,0.9869778032571 -4.9301795906332,1.4992736791196 -7.4944826498413,1.4999992257101 -2.5679812925489,7.265873137e-4 -5.1367706330376,-0.5130214224514 -7.5055173501587,-1.4999992257085 -2.3687467171211,-0.986977803257 -4.9301795906332,-1.4992736791196 -7.4944826498413,-1.4999992257101 -2.5679812925489,-7.265873137e-4 -5.1367706330376,0.5130214224515 -7.5055173501587,1.4999992257085 -2.3687467171211,0.9869778032571 -4.9301795906332,1.4992736791196 -7.4944826498413,1.4999992257101 -2.5679812925489,7.265873129e-4 -5.1367706330376,-0.5130214224515 -7.5055173501587,-1.4999992257093 -2.3687467171211,-0.9869778032562 -4.9301795906332,-1.4992736791196 -7.4944826498413,-1.4999992257101 -2.5679812925489,-7.26587313e-4 -5.1367706330376,0.5130214224522 -7.5055173501587,1.4999992257093 -2.3687467171211,0.9869778032571 -4.9301795906332,1.4992736791196 -7.4944826498413,1.49999922571 -2.5679812925489,7.26587313e-4 -5.1367706330376,-0.5130214224521 -7.5055173501587,-1.4999992257092 -2.3687467171211,-0.9869778032563 -4.9301795906332,-1.4992736791196 -7.4944826498413,-1.4999992257101 -2.5679812925489,-7.26587313e-4 -5.1367706330376,0.5130214224521 -7.5055173501587,1.4999992257092 -2.3687467171211,0.9869778032571 -4.9301795906332,1.4992736791197 -7.4944826498413,1.4999992257094 -2.5679812925489,7.265873137e-4 -5.1367706330376,-0.5130214224514 -7.5055173501587,-1.4999992257085 -2.3687467171211,-0.986977803257 -4.9301795906332,-1.4992736791196 -7.4944826498413,-1.4999992257101 z"
           id="path11827"
           inkscape:connector-curvature="0"
           sodipodi:nodetypes="czszszszszszszszszszszcczszszszszszszszszszszcc" />
        <path
           sodipodi:nodetypes="czszszszszszszszszszszcczszszszszszszszszszszcc"
           inkscape:connector-curvature="0"
           id="path12026"
           d="m -766.8062133789062,683.192917649069 c 2.5643030592081,7.255465905e-4 5.1257359327202,0.5130214224531 7.4944826498413,1.4999992257101 2.3687467171211,0.9869778032571 4.9375360576098,1.5007258130222 7.5055173501587,1.4999992257085 2.5643030592081,-7.255465899e-4 5.1257359327202,-0.5130214224525 7.4944826498413,-1.4999992257101 2.3687467171211,-0.9869778032565 4.9375360576098,-1.5007258130222 7.5055173501587,-1.4999992257085 2.5643030592081,7.255465905e-4 5.1257359327202,0.5130214224531 7.4944826498413,1.4999992257101 2.3687467171211,0.9869778032571 4.9375360576098,1.5007258130228 7.5055173501587,1.4999992257091 2.5643030592081,-7.255465905e-4 5.1257359327202,-0.5130214224531 7.4944826498413,-1.4999992257101 2.3687467171211,-0.9869778032571 4.9375360576098,-1.5007258130228 7.5055173501587,-1.4999992257085 2.5643030592081,7.255465905e-4 5.1257359327202,0.5130214224525 7.4944826498413,1.4999992257101 2.3687467171211,0.9869778032571 4.9375360576098,1.5007258130222 7.5055173501587,1.4999992257085 2.5643030592081,-7.255465905e-4 5.1257359327202,-0.5130214224531 7.4944826498413,-1.4999992257101 2.3687467171211,-0.9869778032571 4.9375360576098,-1.5007258130228 7.5055173501587,-1.4999992257085 2.5643030592081,7.255465905e-4 5.1257359327202,0.5130214224531 7.4944826498413,1.4999992257101 2.3687467171211,0.9869778032571 4.9375360576098,1.5007258130222 7.5055173501587,1.4999992257085 2.5643030592081,-7.255465905e-4 5.1257359327202,-0.5130214224528 7.4944826498413,-1.4999992257101 2.3687467171211,-0.9869778032571 4.9375360576098,-1.5007258130222 7.5055173501587,-1.4999992257085 2.5643030592081,7.255465905e-4 5.1257359327202,0.5130214224531 7.4944826498413,1.4999992257101 2.3687467171211,0.9869778032571 4.9375360576098,1.5007258130222 7.5055173501587,1.4999992257085 2.5643030592081,-7.255465903e-4 5.1257359327202,-0.5130214224528 7.4944826498413,-1.4999992257101 2.3687467171211,-0.9869778032571 4.9375360576098,-1.5007258130222 7.5055173501587,-1.4999992257085 2.5643030592081,7.255465905e-4 5.1257359327202,0.5130214224533 7.4944826498413,1.4999992257101 2.3687467171211,0.9869778032571 4.9375360576098,1.5007258130222 7.5055173501587,1.4999992257085 v 9.0909271240234 c -2.5679812925489,7.265873143e-4 -5.1367706330376,-0.5130214224514 -7.5055173501587,-1.4999992257079 -2.3687467171211,-0.9869778032571 -4.9301795906332,-1.4992736791202 -7.4944826498413,-1.4999992257101 -2.5679812925489,-7.265873138e-4 -5.1367706330376,0.5130214224508 -7.5055173501587,1.4999992257084 -2.3687467171211,0.9869778032571 -4.9301795906332,1.4992736791191 -7.4944826498413,1.4999992257096 -2.5679812925489,7.265873143e-4 -5.1367706330376,-0.5130214224514 -7.5055173501587,-1.4999992257085 -2.3687467171211,-0.9869778032565 -4.9301795906332,-1.4992736791196 -7.4944826498413,-1.4999992257101 -2.5679812925489,-7.265873132e-4 -5.1367706330376,0.5130214224514 -7.5055173501587,1.499999225709 -2.3687467171211,0.9869778032571 -4.9301795906332,1.4992736791191 -7.4944826498413,1.4999992257096 -2.5679812925489,7.265873137e-4 -5.1367706330376,-0.5130214224514 -7.5055173501587,-1.4999992257085 -2.3687467171211,-0.9869778032565 -4.9301795906332,-1.4992736791196 -7.4944826498413,-1.4999992257101 -2.5679812925489,-7.265873138e-4 -5.1367706330376,0.5130214224514 -7.5055173501587,1.499999225709 -2.3687467171211,0.9869778032571 -4.9301795906332,1.4992736791191 -7.4944826498413,1.4999992257096 -2.5679812925489,7.265873135e-4 -5.1367706330376,-0.5130214224514 -7.5055173501587,-1.4999992257087 -2.3687467171211,-0.9869778032569 -4.9301795906332,-1.4992736791197 -7.4944826498413,-1.4999992257101 -2.5679812925489,-7.265873136e-4 -5.1367706330376,0.5130214224516 -7.5055173501587,1.4999992257086 -2.3687467171211,0.9869778032571 -4.9301795906332,1.4992736791197 -7.4944826498413,1.4999992257101 -2.5679812925489,7.265873136e-4 -5.1367706330376,-0.5130214224516 -7.5055173501587,-1.4999992257086 -2.3687467171211,-0.9869778032569 -4.9301795906332,-1.4992736791197 -7.4944826498413,-1.4999992257107 -2.5679812925489,-7.26587313e-4 -5.1367706330376,0.5130214224522 -7.5055173501587,1.4999992257092 -2.3687467171211,0.9869778032571 -4.9301795906332,1.4992736791197 -7.4944826498413,1.4999992257099 -2.5679812925489,7.265873138e-4 -5.1367706330376,-0.5130214224514 -7.5055173501587,-1.4999992257084 -2.3687467171211,-0.9869778032571 -4.9301795906332,-1.4992736791197 -7.4944826498413,-1.4999992257107 z"
           style="fill:#00529b;fill-opacity:1;stroke:none;stroke-width:1px;stroke-linecap:butt;stroke-linejoin:miter;stroke-opacity:1" />
        <path
           style="fill:#00529b;fill-opacity:1;stroke:none;stroke-width:1px;stroke-linecap:butt;stroke-linejoin:miter;stroke-opacity:1"
           d="m -766.8062133789062,701.3747413795381 c 2.5643030592081,7.255465905e-4 5.1257359327202,0.5130214224531 7.4944826498413,1.4999992257101 2.3687467171211,0.9869778032571 4.9375360576098,1.5007258130223 7.5055173501587,1.4999992257086 2.5643030592081,-7.255465905e-4 5.1257359327202,-0.5130214224531 7.4944826498413,-1.4999992257101 2.3687467171211,-0.9869778032571 4.9375360576098,-1.5007258130223 7.5055173501587,-1.4999992257085 2.5643030592081,7.255465905e-4 5.1257359327202,0.513021422453 7.4944826498413,1.4999992257101 2.3687467171211,0.9869778032571 4.9375360576098,1.5007258130222 7.5055173501587,1.4999992257085 2.5643030592081,-7.255465905e-4 5.1257359327202,-0.5130214224531 7.4944826498413,-1.4999992257101 2.3687467171211,-0.9869778032571 4.9375360576098,-1.5007258130223 7.5055173501587,-1.4999992257085 2.5643030592081,7.255465905e-4 5.1257359327202,0.513021422453 7.4944826498413,1.4999992257101 2.3687467171211,0.9869778032571 4.9375360576098,1.5007258130222 7.5055173501587,1.4999992257085 2.5643030592081,-7.255465905e-4 5.1257359327202,-0.5130214224531 7.4944826498413,-1.4999992257101 2.3687467171211,-0.9869778032571 4.9375360576098,-1.5007258130223 7.5055173501587,-1.4999992257085 2.5643030592081,7.255465905e-4 5.1257359327202,0.513021422453 7.4944826498413,1.4999992257101 2.3687467171211,0.9869778032571 4.9375360576098,1.5007258130222 7.5055173501587,1.4999992257085 2.5643030592081,-7.255465905e-4 5.1257359327202,-0.5130214224523 7.4944826498413,-1.4999992257101 2.3687467171211,-0.9869778032571 4.9375360576098,-1.5007258130223 7.5055173501587,-1.4999992257085 2.5643030592081,7.255465905e-4 5.1257359327202,0.513021422453 7.4944826498413,1.4999992257101 2.3687467171211,0.9869778032571 4.9375360576098,1.5007258130222 7.5055173501587,1.4999992257085 2.5643030592081,-7.255465897e-4 5.1257359327202,-0.5130214224523 7.4944826498413,-1.4999992257101 2.3687467171211,-0.9869778032571 4.9375360576098,-1.5007258130223 7.5055173501587,-1.4999992257085 2.5643030592081,7.255465905e-4 5.1257359327202,0.5130214224538 7.4944826498413,1.4999992257101 2.3687467171211,0.9869778032571 4.9375360576098,1.5007258130222 7.5055173501587,1.4999992257085 v 9.0909271240239 c -2.5679812925489,7.265873138e-4 -5.1367706330376,-0.5130214224514 -7.5055173501587,-1.4999992257084 -2.3687467171211,-0.9869778032571 -4.9301795906332,-1.4992736791197 -7.4944826498413,-1.4999992257101 -2.5679812925489,-7.265873138e-4 -5.1367706330376,0.5130214224513 -7.5055173501587,1.4999992257084 -2.3687467171211,0.9869778032571 -4.9301795906332,1.4992736791196 -7.4944826498413,1.4999992257101 -2.5679812925489,7.265873138e-4 -5.1367706330376,-0.5130214224514 -7.5055173501587,-1.4999992257084 -2.3687467171211,-0.9869778032571 -4.9301795906332,-1.4992736791197 -7.4944826498413,-1.4999992257101 -2.5679812925489,-7.265873138e-4 -5.1367706330376,0.5130214224513 -7.5055173501587,1.4999992257084 -2.3687467171211,0.9869778032571 -4.9301795906332,1.4992736791196 -7.4944826498413,1.4999992257101 -2.5679812925489,7.265873137e-4 -5.1367706330376,-0.5130214224514 -7.5055173501587,-1.4999992257085 -2.3687467171211,-0.986977803257 -4.9301795906332,-1.4992736791196 -7.4944826498413,-1.4999992257101 -2.5679812925489,-7.265873137e-4 -5.1367706330376,0.5130214224514 -7.5055173501587,1.4999992257085 -2.3687467171211,0.9869778032571 -4.9301795906332,1.4992736791196 -7.4944826498413,1.4999992257101 -2.5679812925489,7.265873129e-4 -5.1367706330376,-0.5130214224514 -7.5055173501587,-1.4999992257093 -2.3687467171211,-0.9869778032562 -4.9301795906332,-1.4992736791196 -7.4944826498413,-1.4999992257101 -2.5679812925489,-7.26587313e-4 -5.1367706330376,0.5130214224522 -7.5055173501587,1.4999992257093 -2.3687467171211,0.9869778032571 -4.9301795906332,1.4992736791196 -7.4944826498413,1.49999922571 -2.5679812925489,7.26587313e-4 -5.1367706330376,-0.5130214224521 -7.5055173501587,-1.4999992257092 -2.3687467171211,-0.9869778032563 -4.9301795906332,-1.4992736791196 -7.4944826498413,-1.4999992257101 -2.5679812925489,-7.26587313e-4 -5.1367706330376,0.5130214224522 -7.5055173501587,1.4999992257092 -2.3687467171211,0.9869778032571 -4.9301795906332,1.4992736791197 -7.4944826498413,1.4999992257094 -2.5679812925489,7.265873137e-4 -5.1367706330376,-0.5130214224514 -7.5055173501587,-1.4999992257085 -2.3687467171211,-0.986977803257 -4.9301795906332,-1.4992736791196 -7.4944826498413,-1.4999992257101 z"
           id="path12028"
           inkscape:connector-curvature="0"
           sodipodi:nodetypes="czszszszszszszszszszszcczszszszszszszszszszszcc" />
        <path
           style="fill:#00529b;fill-opacity:1;stroke:none;stroke-width:1px;stroke-linecap:butt;stroke-linejoin:miter;stroke-opacity:1"
           d="m -766.8062133789062,719.5565651100065 c 2.5643030592081,7.255465905e-4 5.1257359327202,0.5130214224531 7.4944826498413,1.4999992257101 2.3687467171211,0.9869778032571 4.9375360576098,1.5007258130222 7.5055173501587,1.4999992257085 2.5643030592081,-7.2554659e-4 5.1257359327202,-0.5130214224531 7.4944826498413,-1.4999992257101 2.3687467171211,-0.9869778032566 4.9375360576098,-1.5007258130222 7.5055173501587,-1.4999992257085 2.5643030592081,7.255465905e-4 5.1257359327202,0.5130214224531 7.4944826498413,1.4999992257101 2.3687467171211,0.9869778032571 4.9375360576098,1.5007258130222 7.5055173501587,1.499999225709 2.5643030592081,-7.255465905e-4 5.1257359327202,-0.5130214224536 7.4944826498413,-1.4999992257101 2.3687467171211,-0.9869778032571 4.9375360576098,-1.5007258130227 7.5055173501587,-1.499999225709 2.5643030592081,7.25546591e-4 5.1257359327202,0.5130214224531 7.4944826498413,1.4999992257101 2.3687467171211,0.9869778032576 4.9375360576098,1.5007258130222 7.5055173501587,1.499999225709 2.5643030592081,-7.255465905e-4 5.1257359327202,-0.5130214224536 7.4944826498413,-1.4999992257101 2.3687467171211,-0.9869778032571 4.9375360576098,-1.5007258130227 7.5055173501587,-1.499999225709 2.5643030592081,7.25546591e-4 5.1257359327202,0.5130214224536 7.4944826498413,1.4999992257101 2.3687467171211,0.9869778032576 4.9375360576098,1.5007258130222 7.5055173501587,1.499999225709 2.5643030592081,-7.255465905e-4 5.1257359327202,-0.5130214224527 7.4944826498413,-1.4999992257101 2.3687467171211,-0.9869778032571 4.9375360576098,-1.5007258130222 7.5055173501587,-1.499999225709 2.5643030592081,7.25546591e-4 5.1257359327202,0.5130214224536 7.4944826498413,1.4999992257101 2.3687467171211,0.9869778032576 4.9375360576098,1.5007258130222 7.5055173501587,1.499999225709 2.5643030592081,-7.255465902e-4 5.1257359327202,-0.5130214224527 7.4944826498413,-1.4999992257101 2.3687467171211,-0.9869778032571 4.9375360576098,-1.5007258130222 7.5055173501587,-1.499999225709 2.5643030592081,7.25546591e-4 5.1257359327202,0.5130214224539 7.4944826498413,1.4999992257101 2.3687467171211,0.9869778032576 4.9375360576098,1.5007258130222 7.5055173501587,1.499999225709 v 9.0909271240236 c -2.5679812925489,7.265873141e-4 -5.1367706330376,-0.5130214224514 -7.5055173501587,-1.4999992257081 -2.3687467171211,-0.9869778032576 -4.9301795906332,-1.4992736791201 -7.4944826498413,-1.4999992257101 -2.5679812925489,-7.265873143e-4 -5.1367706330376,0.5130214224509 -7.5055173501587,1.4999992257079 -2.3687467171211,0.9869778032576 -4.9301795906332,1.4992736791197 -7.4944826498413,1.4999992257102 -2.5679812925489,7.265873141e-4 -5.1367706330376,-0.5130214224514 -7.5055173501587,-1.4999992257085 -2.3687467171211,-0.9869778032571 -4.9301795906332,-1.4992736791196 -7.4944826498413,-1.4999992257101 -2.5679812925489,-7.265873138e-4 -5.1367706330376,0.5130214224514 -7.5055173501587,1.4999992257084 -2.3687467171211,0.9869778032576 -4.9301795906332,1.4992736791197 -7.4944826498413,1.4999992257102 -2.5679812925489,7.265873137e-4 -5.1367706330376,-0.5130214224514 -7.5055173501587,-1.4999992257085 -2.3687467171211,-0.9869778032571 -4.9301795906332,-1.4992736791196 -7.4944826498413,-1.4999992257101 -2.5679812925489,-7.265873138e-4 -5.1367706330376,0.5130214224514 -7.5055173501587,1.4999992257084 -2.3687467171211,0.9869778032576 -4.9301795906332,1.4992736791197 -7.4944826498413,1.4999992257102 -2.5679812925489,7.265873134e-4 -5.1367706330376,-0.5130214224514 -7.5055173501587,-1.4999992257088 -2.3687467171211,-0.9869778032568 -4.9301795906332,-1.4992736791202 -7.4944826498413,-1.4999992257101 -2.5679812925489,-7.265873135e-4 -5.1367706330376,0.5130214224517 -7.5055173501587,1.4999992257087 -2.3687467171211,0.9869778032571 -4.9301795906332,1.4992736791197 -7.4944826498413,1.4999992257102 -2.5679812925489,7.265873134e-4 -5.1367706330376,-0.5130214224523 -7.5055173501587,-1.4999992257088 -2.3687467171211,-0.9869778032568 -4.9301795906332,-1.4992736791202 -7.4944826498413,-1.4999992257106 -2.5679812925489,-7.26587313e-4 -5.1367706330376,0.5130214224522 -7.5055173501587,1.4999992257092 -2.3687467171211,0.9869778032571 -4.9301795906332,1.4992736791197 -7.4944826498413,1.4999992257098 -2.5679812925489,7.265873138e-4 -5.1367706330376,-0.5130214224519 -7.5055173501587,-1.4999992257084 -2.3687467171211,-0.9869778032571 -4.9301795906332,-1.4992736791202 -7.4944826498413,-1.4999992257106 z"
           id="path12032"
           inkscape:connector-curvature="0"
           sodipodi:nodetypes="czszszszszszszszszszszcczszszszszszszszszszszcc" />
        <path
           sodipodi:nodetypes="czszszszszszszszszszszcczszszszszszszszszszszcc"
           inkscape:connector-curvature="0"
           id="path12034"
           d="m -766.8062133789062,737.7384040992642 c 2.5643030592081,7.255465905e-4 5.1257359327202,0.5130214224531 7.4944826498413,1.4999992257102 2.3687467171211,0.986977803257 4.9375360576098,1.5007258130222 7.5055173501587,1.4999992257088 2.5643030592081,-7.255465905e-4 5.1257359327202,-0.5130214224534 7.4944826498413,-1.4999992257106 2.3687467171211,-0.9869778032566 4.9375360576098,-1.5007258130222 7.5055173501587,-1.4999992257085 2.5643030592081,7.255465905e-4 5.1257359327202,0.5130214224531 7.4944826498413,1.4999992257102 2.3687467171211,0.986977803257 4.9375360576098,1.5007258130222 7.5055173501587,1.4999992257088 2.5643030592081,-7.255465905e-4 5.1257359327202,-0.5130214224534 7.4944826498413,-1.4999992257101 2.3687467171211,-0.9869778032571 4.9375360576098,-1.5007258130227 7.5055173501587,-1.499999225709 2.5643030592081,7.25546591e-4 5.1257359327202,0.5130214224531 7.4944826498413,1.4999992257102 2.3687467171211,0.9869778032574 4.9375360576098,1.5007258130222 7.5055173501587,1.4999992257088 2.5643030592081,-7.255465905e-4 5.1257359327202,-0.5130214224534 7.4944826498413,-1.4999992257101 2.3687467171211,-0.9869778032571 4.9375360576098,-1.5007258130227 7.5055173501587,-1.499999225709 2.5643030592081,7.25546591e-4 5.1257359327202,0.5130214224536 7.4944826498413,1.4999992257102 2.3687467171211,0.9869778032574 4.9375360576098,1.5007258130222 7.5055173501587,1.4999992257088 2.5643030592081,-7.255465905e-4 5.1257359327202,-0.5130214224527 7.4944826498413,-1.4999992257101 2.3687467171211,-0.9869778032571 4.9375360576098,-1.5007258130222 7.5055173501587,-1.499999225709 2.5643030592081,7.25546591e-4 5.1257359327202,0.5130214224536 7.4944826498413,1.4999992257102 2.3687467171211,0.9869778032574 4.9375360576098,1.5007258130222 7.5055173501587,1.4999992257088 2.5643030592081,-7.255465902e-4 5.1257359327202,-0.5130214224527 7.4944826498413,-1.4999992257101 2.3687467171211,-0.9869778032571 4.9375360576098,-1.5007258130222 7.5055173501587,-1.499999225709 2.5643030592081,7.25546591e-4 5.1257359327202,0.5130214224539 7.4944826498413,1.4999992257102 2.3687467171211,0.9869778032574 4.9375360576098,1.5007258130222 7.5055173501587,1.4999992257088 v 9.0909271240236 c -2.5679812925489,7.265873141e-4 -5.1367706330376,-0.5130214224514 -7.5055173501587,-1.4999992257081 -2.3687467171211,-0.9869778032576 -4.9301795906332,-1.4992736791201 -7.4944826498413,-1.4999992257101 -2.5679812925489,-7.265873143e-4 -5.1367706330376,0.5130214224509 -7.5055173501587,1.4999992257081 -2.3687467171211,0.9869778032574 -4.9301795906332,1.4992736791196 -7.4944826498413,1.4999992257101 -2.5679812925489,7.265873141e-4 -5.1367706330376,-0.5130214224514 -7.5055173501587,-1.4999992257081 -2.3687467171211,-0.9869778032576 -4.9301795906332,-1.4992736791201 -7.4944826498413,-1.4999992257106 -2.5679812925489,-7.265873138e-4 -5.1367706330376,0.5130214224514 -7.5055173501587,1.4999992257085 -2.3687467171211,0.9869778032574 -4.9301795906332,1.4992736791196 -7.4944826498413,1.4999992257101 -2.5679812925489,7.265873137e-4 -5.1367706330376,-0.5130214224514 -7.5055173501587,-1.4999992257085 -2.3687467171211,-0.9869778032571 -4.9301795906332,-1.4992736791196 -7.4944826498413,-1.4999992257101 -2.5679812925489,-7.265873138e-4 -5.1367706330376,0.5130214224514 -7.5055173501587,1.4999992257085 -2.3687467171211,0.9869778032574 -4.9301795906332,1.4992736791196 -7.4944826498413,1.4999992257101 -2.5679812925489,7.265873134e-4 -5.1367706330376,-0.5130214224514 -7.5055173501587,-1.4999992257088 -2.3687467171211,-0.9869778032568 -4.9301795906332,-1.4992736791201 -7.4944826498413,-1.4999992257101 -2.5679812925489,-7.265873135e-4 -5.1367706330376,0.5130214224517 -7.5055173501587,1.4999992257088 -2.3687467171211,0.9869778032574 -4.9301795906332,1.4992736791196 -7.4944826498413,1.4999992257101 -2.5679812925489,7.265873134e-4 -5.1367706330376,-0.5130214224523 -7.5055173501587,-1.4999992257088 -2.3687467171211,-0.9869778032568 -4.9301795906332,-1.4992736791201 -7.4944826498413,-1.4999992257106 -2.5679812925489,-7.26587313e-4 -5.1367706330376,0.5130214224522 -7.5055173501587,1.4999992257093 -2.3687467171211,0.986977803257 -4.9301795906332,1.4992736791196 -7.4944826498413,1.4999992257096 -2.5679812925489,7.265873138e-4 -5.1367706330376,-0.5130214224519 -7.5055173501587,-1.4999992257084 -2.3687467171211,-0.9869778032571 -4.9301795906332,-1.4992736791201 -7.4944826498413,-1.4999992257106 z"
           style="fill:#00529b;fill-opacity:1;stroke:none;stroke-width:1px;stroke-linecap:butt;stroke-linejoin:miter;stroke-opacity:1" />
      </g>
      <path
         style="opacity:1;fill:#00703c;fill-opacity:1;stroke:none;stroke-width:50;stroke-linecap:round;stroke-linejoin:round;stroke-miterlimit:4;stroke-dasharray:none;stroke-dashoffset:0;stroke-opacity:1;paint-order:normal"
         d="M -822.8569913361659,687.1428583048391 V 187.142870675303 h 174.99999567034 l 249.9999938147689,249.999993814766 -249.9999938147698,249.9999938147702 z"
         id="path11841"
         inkscape:connector-curvature="0"
         sodipodi:nodetypes="cccccc" />
      <path
         sodipodi:nodetypes="cccccccc"
         inkscape:connector-curvature="0"
         id="rect8500-3-0-1-9-5"
         d="M -577.8569973989049,337.1428669641649 H -747.856993192948 l 3.33786004e-5,111.424866759943 c 0,18.8932614561711 8.5455467339486,36.776637065804 23.2551769217118,48.666479685193 l 61.7447875967091,49.9085684339068 61.7447875967154,-49.9085684339065 c 14.7096301877599,-11.8898426193889 23.2551769217076,-29.7732182290219 23.2551769217076,-48.666479685193 z"
         style="opacity:1;fill:#ffcc00;fill-opacity:1;stroke:#000000;stroke-width:5;stroke-linecap:round;stroke-linejoin:miter;stroke-miterlimit:4;stroke-dasharray:none;stroke-dashoffset:0;stroke-opacity:1;paint-order:normal" />
      <g
         style="stroke:#000000;stroke-width:0.7236382961;stroke-linecap:round;stroke-linejoin:round;stroke-miterlimit:4;stroke-dasharray:none"
         id="g11606-7-8"
         transform="matrix(3.45476469371679,0,0,3.454764693716787,225.9938172666971,-1100.340853658285)">
        <path
           style="fill:none;stroke:#000000;stroke-width:0.7236382961;stroke-linecap:round;stroke-linejoin:round;stroke-miterlimit:4;stroke-dasharray:none;stroke-opacity:1"
           d="m -267.9825341904119,445.340506300586 1.1e-12,2.3124597364503"
           id="path11597-0-1"
           inkscape:connector-curvature="0" />
        <path
           style="fill:none;stroke:#000000;stroke-width:0.7236382961;stroke-linecap:round;stroke-linejoin:round;stroke-miterlimit:4;stroke-dasharray:none;stroke-opacity:1"
           d="m -263.7016814839378,445.9462712705952 2.5002e-9,2.675311486671"
           id="path11599-7-5"
           inkscape:connector-curvature="0" />
        <path
           style="fill:none;stroke:#000000;stroke-width:0.7236382961;stroke-linecap:round;stroke-linejoin:round;stroke-miterlimit:4;stroke-dasharray:none;stroke-opacity:1"
           d="m -261.5612354524795,446.2384316666301 -9.55988e-8,-2.5288070326877"
           id="path11601-7-5"
           inkscape:connector-curvature="0" />
      </g>
      <g
         style="stroke:#000000;stroke-width:0.7236382961;stroke-linecap:round;stroke-linejoin:round;stroke-miterlimit:4;stroke-dasharray:none"
         transform="matrix(-3.45476469371679,0,0,3.454764693716787,-1551.708168374839,-1100.340853658285)"
         id="g11564-6-3">
        <path
           style="fill:none;stroke:#000000;stroke-width:0.7236382961;stroke-linecap:round;stroke-linejoin:round;stroke-miterlimit:4;stroke-dasharray:none;stroke-opacity:1"
           d="m -271.0051131246451,446.6511505558134 c 4.3733342439306,1.6528519084125 9.0472660648731,2.5066086300937 13.7225170570924,2.5066029254821 4.6752194187151,-5.7045731e-6 9.3491176271611,-0.853762179866 13.7224223364343,-2.5066029262823"
           id="path11546-4-7"
           inkscape:connector-curvature="0" />
        <path
           style="fill:none;stroke:#000000;stroke-width:0.7236382961;stroke-linecap:round;stroke-linejoin:round;stroke-miterlimit:4;stroke-dasharray:none;stroke-opacity:1"
           d="m -267.2612046932441,445.0747888091329 c 3.2369576277179,0.9411669811426 6.6076061786205,1.421245440674 9.9786134420411,1.4212449910365 3.3710076926018,-4.496377e-7 6.7416565443883,-0.4800799313889 9.9786142992428,-1.4212480124818"
           id="path11550-0-0"
           inkscape:connector-curvature="0" />
      </g>
      <g
         style="stroke:#000000;stroke-width:0.7236382961;stroke-linecap:round;stroke-linejoin:round;stroke-miterlimit:4;stroke-dasharray:none"
         transform="matrix(-3.45476469371679,0,0,3.454764693716787,-1551.708168374839,-1100.340853658285)"
         id="g11614-7-2">
        <path
           inkscape:connector-curvature="0"
           id="path11608-6-1"
           d="m -267.9825341904119,445.340506300586 1.1e-12,2.3124597364503"
           style="fill:none;stroke:#000000;stroke-width:0.7236382961;stroke-linecap:round;stroke-linejoin:round;stroke-miterlimit:4;stroke-dasharray:none;stroke-opacity:1" />
        <path
           inkscape:connector-curvature="0"
           id="path11610-9-0"
           d="m -263.7016814839378,445.9462712705952 2.5002e-9,2.675311486671"
           style="fill:none;stroke:#000000;stroke-width:0.7236382961;stroke-linecap:round;stroke-linejoin:round;stroke-miterlimit:4;stroke-dasharray:none;stroke-opacity:1" />
        <path
           inkscape:connector-curvature="0"
           id="path11612-3-3"
           d="m -261.5612354524795,446.2384316666301 -9.55988e-8,-2.5288070326877"
           style="fill:none;stroke:#000000;stroke-width:0.7236382961;stroke-linecap:round;stroke-linejoin:round;stroke-miterlimit:4;stroke-dasharray:none;stroke-opacity:1" />
      </g>
      <g
         transform="matrix(4.999999876295428,0,0,4.990864050232477,3186.338246864364,-1864.54714929767)"
         style="opacity:1;fill:#ffcc00;fill-opacity:1;stroke:#000000;stroke-width:0.500457406;stroke-linecap:round;stroke-linejoin:round;stroke-miterlimit:4;stroke-dasharray:none"
         id="g9906-8-4-8-2-9">
        <path
           style="opacity:1;fill:#ffcc00;fill-opacity:1;stroke:#000000;stroke-width:0.500457406;stroke-linecap:round;stroke-linejoin:round;stroke-miterlimit:4;stroke-dasharray:none;stroke-dashoffset:0;stroke-opacity:1;paint-order:normal"
           d="m -778.7711858324643,471.8688270936877 c -0.076757101361,0.091475551304 -0.1964852135667,0.1350530203517 -0.3140839155019,0.1143171963043 -0.1175987019354,-0.020735824047 -0.2152019532665,-0.1026346762403 -0.2560435538406,-0.2148460515924 -0.040841600574,-0.112211375352 -0.018716739699,-0.2376876965933 0.058040361662,-0.3291632478979 l 1.531598696141,-1.8252882485387 c 0.2836455693041,-0.3378419663377 0.4998596045001,-0.7324469062342 0.6318777230091,-1.1528426821419 0.1320181185099,-0.4203957759071 0.3476104518113,-0.8138727579182 0.6306592984016,-1.1513906202393 l 11.7758120038493,-13.8624962366568 c 0.468924724398,-0.55852190833 0.8261421956106,-1.2110768893934 1.043955809551,-1.9064462269273 0.2178136139405,-0.6953693375338 0.5740039307667,-1.3460590299341 1.0419415033507,-1.904045670278 l 4.6535848379193,-5.5459264490344 c 0.5863453975668,-0.050413162061 1.1898210266752,0.1404698607477 1.6405187466346,0.5189060870534 0.4503148048226,0.378114704911 0.7426205491737,0.9388306871318 0.7947467617313,1.524524302836 l -4.6535848379186,5.5459264490343 c -0.4682530627471,0.5577219126646 -1.0472055172086,1.021491977535 -1.6941876948877,1.3567461315234 -0.6469821776784,0.3352541539886 -1.2275932193894,0.8003596724392 -1.696202001085,1.3591466881741 l -11.6070454749456,14.0041081688148 c -0.2832392911929,0.3373580603256 -0.6333012579122,0.6180016225314 -1.0243855716609,0.8210150495629 -0.3910843137495,0.2030134270308 -0.7421491447385,0.4844651139136 -1.0256039962685,0.8224671114651 z"
           id="path9515-0-0-6-7-9"
           inkscape:connector-curvature="0"
           sodipodi:nodetypes="csscczcczccscczcczcc" />
        <path
           style="opacity:1;fill:#ffcc00;fill-opacity:1;stroke:#000000;stroke-width:0.500457406;stroke-linecap:round;stroke-linejoin:round;stroke-miterlimit:4;stroke-dasharray:none;stroke-dashoffset:0;stroke-opacity:1;paint-order:normal"
           d="m -781.5619022066199,447.9731914045709 c -0.3011119374869,-0.3588512332732 -0.2543049900063,-0.8938570911097 0.1045462432662,-1.1949690285963 0.3588512332732,-0.301111937487 0.8938570911097,-0.2543049900063 1.1949690285958,0.1045462432668 l 20.1499826356022,24.0150102998836 -1.2995396541993,1.0904432445393 z"
           id="path9257-8-8-8-1-8"
           inkscape:connector-curvature="0"
           sodipodi:nodetypes="cscccc" />
        <path
           sodipodi:nodetypes="csccscc"
           inkscape:original-d="m -772.7972167399426,449.2180429611894 c -1.2930172150742,1.0856290128191 -3.3031471317238,1.3170241073934 -4.59687054498,2.4025869463019 -1.2937234132554,1.0855628389077 -1.8710403231156,3.0252934221492 -3.1654699345529,4.1107900871462 l -4.4053890243548,-5.2501381965501 c 1.2937808747025,-1.0862697993308 3.3042926211674,-1.3179852871613 4.5980160344227,-2.40354812607 1.2937234132554,-1.0855628389082 1.8706584933019,-3.0249730288932 3.1643244451103,-4.1098289073787 z"
           inkscape:path-effect="#path-effect9253-2-9-3-5-5-6"
           inkscape:connector-curvature="0"
           id="path9251-8-1-8-8-1"
           d="m -772.7972167399426,449.2180429611894 c -1.6816386785572,0.4566333849829 -3.2619431572633,1.282590712815 -4.59687054498,2.4025869463019 -1.3353092373679,1.1203166031005 -2.4235481821994,2.533541798522 -3.1654699345529,4.1107900871462 l -4.4053890243548,-5.2501381965501 c 1.6821197033305,-0.4567640027978 3.26284554217,-1.2830661729795 4.5980160344227,-2.40354812607 1.3347886822771,-1.1201615361929 2.4226148552698,-2.5330316541343 3.1643244451103,-4.1098289073787 z"
           style="fill:#ffcc00;fill-opacity:1;stroke:#000000;stroke-width:0.500457406;stroke-linecap:round;stroke-linejoin:round;stroke-miterlimit:4;stroke-dasharray:none;stroke-opacity:1" />
      </g>
      <path
         id="path11465-6-2"
         d="m -615.4492717350979,442.733771687156 c -14.6549297505804,-7.3227980817079 -31.0250838793897,-11.18508168117 -47.4077069214746,-11.1851120942498 -16.3827543073013,-3.04133221e-5 -32.7530535441889,3.862255340779 -47.4081007164772,11.1851120970158 l -15.5543811968969,-23.233338978104 c 3.5558048727421,-1.9038690005879 7.1984405141383,-3.6455566828481 10.9127915784633,-5.217835804181 3.7143510643241,-1.5722791213341 7.5004090060935,-2.9751460644491 11.3424633397195,-4.20277954472 l 2.821547137989,8.8225181477932 c 4.2130618002798,-1.3461559576831 8.4984267223299,-2.4659928436441 12.8314530641278,-3.3530713726981 4.312954307532,-0.882969283175 8.6731102225572,-1.5353298253001 13.0556273275429,-1.95336503721 l -0.9005090684241,-9.2188826941219 c 4.2866145995395,-0.4107600540531 8.5928585938209,-0.6166087968729 12.899108533964,-0.616608180763 4.3062370417051,6.16107e-7 8.6124680787293,0.2058493570582 12.8990698386419,0.616608180763 l -0.9005090684246,9.2188826941219 c 4.3825171049867,0.4180352119069 8.742673020011,1.070395754035 13.0556273275425,1.95336503721 4.333026341797,0.887078529054 8.6183912638484,2.0069154150151 12.8314530641269,3.3530713726981 l 2.8215471379881,-8.8225181477932 c 3.8420543336265,1.227633480271 7.6281122753983,2.6305004233859 11.3424633397192,4.2027795447179 3.7143510643241,1.5722791213321 7.3569867057231,3.3139668035932 10.9127915784636,5.2178358041831 z"
         style="fill:#ffcc00;stroke:#000000;stroke-width:2.5;stroke-linecap:round;stroke-linejoin:round;stroke-miterlimit:4;stroke-dasharray:none;stroke-opacity:1"
         inkscape:connector-curvature="0" />
      <g
         style="stroke:#000000;stroke-width:0.7236382961;stroke-linecap:round;stroke-linejoin:round;stroke-miterlimit:4;stroke-dasharray:none"
         id="g11544-9-4"
         transform="matrix(3.45476469371679,0,0,3.454764693716787,225.9938172666971,-1100.340853658285)">
        <path
           sodipodi:nodetypes="ccc"
           inkscape:connector-curvature="0"
           id="path11499-4-5"
           d="m -266.9147485253495,439.3551985966067 -0.4785073698594,-1.7232007796237 -1.6722537208457,-0.4327078716453"
           style="fill:none;stroke:#000000;stroke-width:0.7236382961;stroke-linecap:round;stroke-linejoin:round;stroke-miterlimit:4;stroke-dasharray:none;stroke-opacity:1" />
        <path
           sodipodi:nodetypes="ccc"
           inkscape:connector-curvature="0"
           id="path11499-7-1-0"
           d="m -247.6504355449188,439.3551985966068 0.4785073698594,-1.7232007796237 1.6722537208457,-0.4327078716452"
           style="fill:none;stroke:#000000;stroke-width:0.7236382961;stroke-linecap:round;stroke-linejoin:round;stroke-miterlimit:4;stroke-dasharray:none;stroke-opacity:1" />
      </g>
      <g
         style="stroke:#000000;stroke-width:0.7236382961;stroke-linecap:round;stroke-linejoin:round;stroke-miterlimit:4;stroke-dasharray:none"
         id="g11595-3-9"
         transform="matrix(3.45476469371679,0,0,3.454764693716787,225.9938172666971,-1100.340853658285)">
        <path
           style="fill:none;stroke:#000000;stroke-width:0.7236382961;stroke-linecap:round;stroke-linejoin:round;stroke-miterlimit:4;stroke-dasharray:none;stroke-opacity:1"
           d="m -266.6158438564522,444.8696955430305 -0.8136083066972,-2.5547205222801 m -2.4235312640431,0.8758808421978 -1.0079399958979,-2.4844931958835 m 5.2981520070955,-1.6878796539329 0.6156714788451,2.6095069502628 m 2.5276848826503,-0.4950494469174 0.4141164220575,2.6489739549535 m 4.7226673767994,-0.3683540523616 v -2.6811523418605 m -2.5773764381745,0.1007647310344 -0.208891953491,-2.6730158312235 m 5.5725085070767,3.75863e-7 -0.208892353184,2.673015798405 m 2.5594541913384,0.2997754514304 -0.4141206267763,2.6489732974171 m 4.610557334996,1.0877928319708 0.8136135903916,-2.5547188396687 m -2.4823969173469,-0.6870010664725 0.6156731935316,-2.6095065454049 m 5.2981666653539,1.6878895182824 -1.0079427773969,2.4844920676488"
           id="path11176-4-7"
           inkscape:connector-curvature="0"
           sodipodi:nodetypes="cccccccccccccccccccccc" />
        <g
           id="g11587-2-0"
           style="stroke:#000000;stroke-width:0.7236382961;stroke-linecap:round;stroke-linejoin:round;stroke-miterlimit:4;stroke-dasharray:none">
          <path
             id="path11566-5-2"
             d="m -272.5073529220571,444.4072781704153 c 4.689535335347,-2.4039248892251 9.9549402160643,-3.6748629955958 15.2247216664145,-3.6748700931993 5.2697891216497,-7.0976138e-6 10.5352050654712,1.2709205904806 15.2247520452591,3.6748395806028"
             style="fill:none;stroke:#000000;stroke-width:0.7236382961;stroke-linecap:round;stroke-linejoin:round;stroke-miterlimit:4;stroke-dasharray:none;stroke-opacity:1"
             inkscape:connector-curvature="0" />
          <path
             id="path11571-3-3"
             d="m -274.0080155503241,442.1657615782124 c 1.025511010914,-0.5351800165714 2.0760720682807,-1.0223559876678 3.1470921272337,-1.4593989111476 0.8583873356605,-0.3502755224041 1.7299117508008,-0.668355945439 2.6121256204681,-0.9533479589842"
             style="fill:none;stroke:#000000;stroke-width:0.7236382961;stroke-linecap:round;stroke-linejoin:round;stroke-miterlimit:4;stroke-dasharray:none;stroke-opacity:1"
             inkscape:connector-curvature="0" />
          <path
             id="path11576-5-7"
             d="m -260.7556448134322,438.2170384896253 c 1.1537147865015,-0.1103944533097 2.3126954656533,-0.1657391433219 3.471679823619,-0.1657827840584 1.1598996610848,-4.36752017e-5 2.3197998049791,0.055301147184 3.4744257329772,0.1657827840582"
             style="fill:none;stroke:#000000;stroke-width:0.7236382961;stroke-linecap:round;stroke-linejoin:round;stroke-miterlimit:4;stroke-dasharray:none;stroke-opacity:1"
             inkscape:connector-curvature="0" />
          <path
             inkscape:connector-curvature="0"
             style="fill:none;stroke:#000000;stroke-width:0.7236382961;stroke-linecap:round;stroke-linejoin:round;stroke-miterlimit:4;stroke-dasharray:none;stroke-opacity:1"
             d="m -240.5571685199442,442.1657615782122 c -1.025511010914,-0.5351800165714 -2.0760720682807,-1.0223559876678 -3.1470921272337,-1.4593989111476 -0.8583873356604,-0.3502755224041 -1.7299117508007,-0.668355945439 -2.612125620468,-0.9533479589842"
             id="path11581-9-2" />
        </g>
      </g>
      <path
         sodipodi:nodetypes="ccccccc"
         inkscape:connector-curvature="0"
         id="path12064"
         d="M -651.3923963613774,687.1428583048375 -401.3924025466088,437.1428644900719 -651.3923963613774,187.142870675303 h 7.0710676369232 l 249.9999938147669,249.999993814766 -249.9999938147678,249.9999938147702 z"
         style="opacity:1;fill:#000000;fill-opacity:1;stroke:none;stroke-width:50;stroke-linecap:round;stroke-linejoin:round;stroke-miterlimit:4;stroke-dasharray:none;stroke-dashoffset:0;stroke-opacity:1;paint-order:normal" />
    </g>
  </g>
</svg>
